<svg xmlns="http://www.w3.org/2000/svg" version="1.1" xmlns:xlink="http://www.w3.org/1999/xlink" xmlns:svgjs="http://svgjs.dev/svgjs" width="1440" height="560" preserveAspectRatio="none" viewBox="0 0 1440 560"><g mask="url(&quot;#SvgjsMask1002&quot;)" fill="none"><rect width="1440" height="560" x="0" y="0" fill="url(&quot;#SvgjsLinearGradient1003&quot;)"></rect><path d="M1440 0L993.1 0L1440 25.22z" fill="rgba(255, 255, 255, .1)"></path><path d="M993.1 0L1440 25.22L1440 70.19999999999999L644.81 0z" fill="rgba(255, 255, 255, .075)"></path><path d="M644.81 0L1440 70.19999999999999L1440 274.51L440.17999999999995 0z" fill="rgba(255, 255, 255, .05)"></path><path d="M440.17999999999995 0L1440 274.51L1440 436.76L161.32999999999993 0z" fill="rgba(255, 255, 255, .025)"></path><path d="M0 560L43.9 560L0 455.40999999999997z" fill="rgba(0, 0, 0, .1)"></path><path d="M0 455.40999999999997L43.9 560L642.47 560L0 399.84z" fill="rgba(0, 0, 0, .075)"></path><path d="M0 399.84000000000003L642.47 560L1107.23 560L0 206.54000000000002z" fill="rgba(0, 0, 0, .05)"></path><path d="M0 206.53999999999996L1107.23 560L1257.64 560L0 195.25999999999996z" fill="rgba(0, 0, 0, .025)"></path></g><defs><mask id="SvgjsMask1002"><rect width="1440" height="560" fill="#ffffff"></rect></mask><linearGradient x1="15.28%" y1="-39.29%" x2="84.72%" y2="139.29%" gradientUnits="userSpaceOnUse" id="SvgjsLinearGradient1003"><stop stop-color="#0e2a47" offset="0"></stop><stop stop-color="#00459e" offset="1"></stop></linearGradient></defs></svg>